# xmcd
#
# Track frame offsets: 
#        150
#        19920
#        45620
#        56665
#        76315
#        91002
#        114365
#        125335
#
# Disc length: 1986 seconds
#
# Revision: 4
# Processed by: cddbd v1.5.2PL0 Copyright (c) Steve Scherf et al.
# Submitted via: ExactAudioCopy v0.99pb5
#
DISCID=5907c008
DTITLE=John Lee Hooker - It Serve You Right To Suffer
DYEAR=1965
DGENRE=Blues
TTITLE0=Shake It Baby
TTITLE1=Country Boy
TTITLE2=Bottle Up And Go
TTITLE3=You're Wrong
TTITLE4=Sugar Mama
TTITLE5=Decoration Day
TTITLE6=Money (That's What I Want)
TTITLE7=It Serve You Right To Suffer
EXTD=
EXTT0=
EXTT1=
EXTT2=
EXTT3=
EXTT4=
EXTT5=
EXTT6=
EXTT7=
PLAYORDER=
